<?xml version="1.0" standalone="no"?>
<!DOCTYPE svg PUBLIC "-//W3C//DTD SVG 20010904//EN"
 "http://www.w3.org/TR/2001/REC-SVG-20010904/DTD/svg10.dtd">
<svg version="1.0" xmlns="http://www.w3.org/2000/svg"
 width="1508.204676pt" height="836.077412pt" viewBox="0 0 1508.204676 836.077412"
 preserveAspectRatio="xMidYMid meet">

<g transform="translate(-275.595476,1413.863424) scale(0.100000,-0.100000)"
fill="#000000" stroke="none">
<path d="M11535 14120 c-301 -46 -529 -132 -956 -361 -175 -95 -365 -183 -464
-217 -452 -155 -848 -186 -1455 -116 -189 22 -716 114 -885 154 -22 5 -98 21
-170 36 -71 14 -254 57 -405 95 -498 126 -679 151 -885 125 -129 -16 -214 -40
-310 -88 -95 -48 -213 -131 -297 -210 -413 -390 -423 -397 -805 -556 -268
-112 -313 -141 -489 -316 -234 -235 -466 -569 -654 -946 -147 -294 -219 -528
-275 -900 -36 -236 -38 -637 -4 -863 28 -187 54 -328 94 -507 84 -374 92 -466
56 -610 -50 -199 -101 -276 -267 -405 -136 -107 -192 -185 -225 -315 -19 -74
-17 -296 4 -430 55 -353 44 -728 -29 -1009 -38 -145 -85 -229 -185 -335 -114
-121 -171 -235 -173 -347 -1 -98 31 -131 169 -171 69 -20 103 -23 245 -23 154
0 167 2 200 22 89 57 92 58 156 35 33 -11 88 -32 124 -48 98 -42 204 -44 346
-9 169 42 182 53 169 143 -14 104 -69 215 -144 290 -30 29 -106 72 -129 72
-19 0 -79 78 -97 123 -15 40 -17 68 -12 184 8 198 40 329 135 543 108 247 179
353 296 445 139 108 209 190 267 313 28 59 55 117 61 129 19 40 61 71 193 143
170 94 232 137 355 244 189 165 345 379 498 684 184 364 280 664 334 1037 32
227 5 552 -68 815 -26 96 -118 362 -169 490 -105 266 -164 484 -165 611 0 36
11 121 25 189 32 158 32 165 -9 206 -68 68 -147 42 -520 -173 -239 -138 -409
-216 -581 -268 -49 -14 -103 -31 -119 -36 -45 -14 -86 -11 -93 7 -12 32 17 72
307 418 74 89 143 169 155 180 86 78 150 116 260 154 180 62 361 149 490 235
131 87 184 130 362 290 232 209 292 248 453 298 65 20 96 23 240 23 194 0 203
-1 690 -129 168 -44 491 -124 545 -135 22 -4 108 -22 190 -38 350 -72 581
-102 922 -122 500 -30 842 -9 1153 69 214 54 368 117 755 311 490 246 638 304
864 335 309 44 639 -6 1131 -171 217 -73 422 -167 581 -267 102 -64 236 -133
299 -155 l30 -11 0 -138 c0 -376 98 -553 390 -707 48 -25 95 -54 104 -65 18
-20 17 -22 -29 -76 -136 -159 -338 -279 -587 -349 -160 -45 -247 -3 -411 197
-88 108 -300 388 -357 472 -64 95 -132 170 -154 170 -20 0 -21 -4 -20 -105 2
-151 39 -283 163 -578 55 -132 113 -268 129 -303 63 -137 72 -158 72 -163 0
-3 14 -36 31 -73 125 -272 265 -670 310 -878 17 -82 39 -285 39 -365 0 -94
-24 -262 -51 -360 -58 -214 -272 -545 -457 -707 -90 -80 -141 -113 -174 -113
-15 0 -67 18 -115 39 -193 86 -339 126 -571 155 -164 21 -270 20 -454 -4 -177
-23 -276 -46 -408 -97 -240 -92 -429 -212 -580 -368 -36 -38 -69 -65 -79 -63
-27 5 -35 95 -16 170 27 107 61 155 161 230 109 82 178 117 348 173 239 80
394 115 596 134 386 37 545 20 905 -100 234 -78 258 -83 294 -64 105 54 304
375 366 589 135 473 -54 1152 -530 1901 -131 206 -211 326 -309 464 -123 173
-169 243 -289 441 -92 151 -119 175 -164 150 -27 -15 -28 -20 -31 -103 -7
-213 87 -423 426 -957 412 -646 561 -996 562 -1315 0 -198 -79 -387 -203 -487
-141 -114 -309 -154 -767 -183 -256 -17 -470 -55 -900 -161 -372 -92 -440
-103 -511 -85 -158 41 -303 180 -361 348 -20 59 -23 87 -22 203 0 141 6 176
63 350 33 100 130 317 214 480 144 278 165 320 200 400 20 47 43 128 53 179
16 86 16 95 1 127 -10 20 -24 34 -35 34 -24 0 -78 -58 -148 -160 -32 -47 -81
-116 -109 -155 -157 -213 -367 -546 -495 -785 -46 -85 -107 -195 -135 -245
-28 -49 -87 -155 -130 -235 -93 -173 -144 -247 -217 -317 -62 -57 -99 -76
-189 -94 -159 -31 -331 70 -413 245 -62 132 -70 179 -70 401 -1 239 13 325 90
565 45 141 28 160 -48 52 -146 -204 -209 -338 -368 -774 -47 -131 -51 -134
-115 -91 -256 170 -510 499 -638 825 -104 264 -141 446 -141 708 -1 191 0 197
27 269 36 92 90 182 211 346 130 176 123 200 -35 120 -284 -142 -394 -276
-527 -640 -110 -299 -130 -524 -88 -970 19 -193 18 -175 6 -175 -29 0 -126
264 -184 500 -40 165 -61 283 -97 545 -16 121 -16 375 1 445 7 30 37 104 66
164 56 114 65 156 38 194 -20 29 -80 30 -134 2 -124 -63 -439 -277 -493 -334
-94 -101 -94 -148 -4 -346 39 -86 65 -185 79 -305 22 -193 10 -724 -23 -970
-83 -620 -330 -1268 -632 -1664 -119 -155 -137 -184 -137 -217 0 -17 22 -75
49 -130 51 -105 78 -176 112 -301 31 -113 37 -309 13 -445 -25 -148 -25 -356
0 -423 38 -97 80 -148 227 -277 147 -128 224 -207 434 -451 151 -174 204 -243
211 -272 5 -21 -9 -83 -52 -230 -9 -29 -14 -76 -12 -112 3 -53 9 -67 33 -93
48 -50 103 -65 245 -65 124 0 126 0 176 33 28 17 56 32 62 32 6 0 40 -16 76
-35 106 -59 180 -75 341 -75 128 0 151 3 268 34 136 37 157 47 157 78 0 70
-72 229 -143 315 -60 74 -98 99 -194 129 -118 37 -155 69 -224 196 -23 42 -81
124 -130 182 -100 119 -154 197 -211 300 -75 135 -159 318 -174 377 l-15 59
64 122 c107 203 118 262 123 638 3 229 6 276 18 278 7 2 45 -16 82 -39 68 -41
210 -114 309 -159 28 -13 79 -36 115 -52 272 -125 566 -217 860 -271 345 -64
535 -82 765 -73 386 14 719 73 1052 187 212 73 231 77 239 55 4 -9 -3 -65 -15
-124 -11 -59 -26 -152 -32 -207 -14 -128 -4 -462 18 -581 24 -133 28 -343 8
-440 -49 -239 -84 -309 -237 -466 -96 -100 -130 -166 -136 -270 -6 -95 0 -118
39 -162 53 -61 188 -96 372 -96 100 0 139 9 201 47 65 41 98 41 179 -1 113
-57 234 -69 421 -41 115 17 172 33 187 51 16 19 -15 152 -53 230 -56 115 -151
216 -216 230 -67 14 -82 26 -113 90 -31 62 -31 65 -27 186 5 160 23 204 135
315 100 98 135 150 174 255 94 252 109 281 267 498 127 174 226 339 333 557
132 269 169 410 169 647 0 106 2 125 18 139 22 20 47 21 91 6 l31 -11 0 -106
c0 -155 -25 -342 -60 -450 -37 -115 -96 -242 -170 -362 -115 -188 -116 -192
-75 -246 35 -46 208 -212 350 -336 125 -109 168 -155 250 -273 27 -38 113
-133 191 -210 145 -143 171 -179 210 -295 14 -42 19 -83 18 -175 0 -142 -7
-160 -92 -265 -75 -91 -97 -152 -97 -266 0 -92 10 -111 77 -145 43 -22 162
-49 217 -49 45 0 109 21 202 66 38 19 74 34 80 34 6 0 27 -14 47 -31 80 -70
204 -100 417 -101 154 -1 251 14 387 59 50 17 53 20 56 55 3 40 -25 120 -90
256 -48 97 -112 162 -189 187 -86 29 -165 124 -294 351 -68 122 -120 254 -140
358 -16 88 -11 156 25 286 52 190 53 194 47 270 -6 81 -13 100 -99 260 -69
129 -84 186 -98 375 -6 81 -15 169 -20 196 -11 57 -48 148 -90 219 -16 28 -30
62 -30 76 0 62 100 204 144 204 10 0 33 -11 50 -24 88 -67 166 -86 249 -62
115 33 210 130 237 241 7 31 17 58 22 61 24 15 48 -12 78 -84 67 -159 127
-248 274 -400 264 -274 553 -427 1156 -614 75 -23 75 -23 106 -83 92 -175 177
-207 493 -185 102 7 330 14 506 16 346 3 380 7 455 59 86 59 113 138 90 258
-16 87 -2 149 59 270 77 151 86 243 44 419 -15 64 -15 71 3 130 23 77 23 187
0 242 -21 50 -20 70 5 136 14 35 26 104 35 191 14 155 25 185 93 278 111 151
200 319 285 540 214 550 305 1014 293 1485 -6 227 -10 251 -43 273 -22 14 -26
14 -48 -1 -14 -9 -27 -29 -31 -48 -17 -91 -45 -213 -85 -368 -60 -233 -190
-519 -318 -700 -137 -193 -597 -560 -701 -560 -26 0 -25 -12 -22 235 2 218
-10 298 -51 342 -32 34 -61 28 -125 -24 -137 -111 -163 -132 -257 -215 -122
-109 -142 -113 -206 -40 -53 59 -83 106 -132 203 -109 219 -154 462 -167 894
-7 221 -10 257 -30 314 -25 72 -68 144 -130 215 -23 26 -41 56 -39 65 2 9 28
30 58 48 136 79 196 122 269 195 117 117 154 203 154 363 0 88 -4 112 -68 345
-30 109 -27 118 84 235 94 98 151 185 151 228 0 44 -46 77 -65 47 -12 -19
-139 -77 -195 -90 -72 -16 -90 -12 -110 25 -9 17 -26 31 -37 33 -52 8 -193
-101 -234 -180 -30 -58 -58 -175 -68 -286 -12 -134 -28 -166 -111 -219 -110
-71 -158 -112 -230 -198 -38 -46 -84 -94 -101 -106 -30 -21 -35 -22 -93 -10
-34 7 -83 24 -110 37 -53 28 -155 61 -201 66 l-30 3 -6 130 c-13 252 -88 363
-387 568 -248 170 -334 208 -381 170 -20 -16 -25 -33 -33 -119 -11 -119 -12
-124 -36 -124 -21 0 -235 104 -325 158 -34 21 -79 46 -100 57 -37 19 -55 37
-140 139 -52 63 -101 76 -272 74 -118 -1 -141 2 -250 31 -256 69 -351 90 -528
115 -142 21 -369 19 -522 -4z m3034 -1292 c72 -74 157 -202 182 -273 29 -81
29 -184 1 -247 -46 -104 -167 -198 -255 -198 -63 0 -117 23 -117 49 0 15 9 22
38 26 120 20 172 76 172 185 0 65 -27 141 -76 216 -36 55 -39 64 -38 129 0 71
20 165 35 165 4 0 30 -24 58 -52z m263 -79 c149 -49 315 -146 383 -221 74 -83
209 -319 244 -430 23 -72 14 -188 -10 -136 -4 7 -15 31 -25 53 -11 21 -41 63
-69 91 -46 48 -55 53 -108 59 -70 9 -139 1 -170 -20 -12 -8 -40 -40 -62 -71
-151 -212 -202 -270 -335 -381 -74 -61 -173 -152 -220 -200 -73 -76 -209 -246
-247 -309 -11 -18 -12 -18 -29 -1 -30 28 -25 144 11 232 56 141 110 207 386
470 182 174 276 332 286 481 5 60 1 86 -22 157 -15 47 -45 116 -66 153 -37 63
-43 94 -19 94 5 0 38 -9 72 -21z m412 -660 c57 -14 105 -64 151 -158 43 -86
59 -142 86 -301 49 -291 129 -540 227 -706 58 -100 154 -226 196 -260 20 -16
36 -32 36 -35 0 -3 -12 -19 -26 -34 -22 -24 -25 -35 -21 -67 7 -56 28 -82 106
-133 124 -82 193 -108 301 -113 52 -2 102 -8 111 -13 10 -5 20 -35 29 -81 7
-40 25 -116 40 -168 33 -110 60 -262 60 -331 0 -58 -19 -79 -115 -128 -42 -22
-65 -40 -65 -51 0 -32 187 -199 330 -294 123 -82 232 -126 308 -126 42 0 44
-1 38 -25 -3 -13 -16 -40 -27 -60 -20 -33 -24 -35 -74 -35 -88 0 -206 20 -270
46 -33 13 -111 52 -173 88 -165 93 -196 101 -377 100 -132 -1 -162 -5 -245
-29 -132 -38 -197 -41 -300 -15 -87 21 -200 71 -221 96 -18 22 -3 44 32 44 32
0 91 26 169 75 57 35 213 192 207 208 -2 7 -17 14 -33 15 -31 4 -128 -15 -154
-29 -40 -23 -186 -80 -219 -85 -45 -7 -152 19 -207 51 -116 68 -215 177 -284
315 -59 119 -97 246 -135 449 -25 137 -41 142 -120 34 -31 -43 -62 -78 -68
-78 -14 0 -13 46 7 205 8 63 20 183 26 265 31 414 50 475 243 770 118 182 153
246 192 360 36 106 78 197 98 213 35 29 82 36 141 21z m1044 -3253 c84 -23
134 -58 195 -140 32 -42 57 -83 57 -92 0 -32 -94 -12 -215 46 -174 83 -236 78
-307 -25 -79 -114 3 -238 237 -359 105 -55 123 -77 84 -109 -20 -16 -35 -19
-89 -15 -110 8 -161 48 -288 225 -69 97 -107 129 -207 175 -17 7 -31 22 -33
34 -7 51 135 175 253 219 149 56 220 65 313 41z"/>
<path d="M14914 10345 c-4 -9 -3 -40 1 -70 12 -98 83 -165 175 -165 45 0 69
10 168 74 37 24 89 50 116 59 97 33 264 13 332 -38 19 -15 64 -62 100 -106 67
-81 82 -90 104 -64 22 27 -22 96 -102 160 -189 150 -349 171 -555 74 -130 -60
-166 -68 -211 -44 -39 21 -91 88 -92 118 0 21 -28 23 -36 2z"/>
<path d="M15313 10041 c-24 -11 -65 -41 -93 -67 -37 -35 -61 -49 -96 -55 -58
-11 -74 -24 -74 -60 0 -55 168 -211 270 -250 63 -24 79 -18 170 60 80 69 107
79 254 92 102 8 136 19 136 40 0 16 -62 48 -131 69 -50 15 -79 32 -125 73 -92
83 -135 107 -207 113 -49 4 -71 1 -104 -15z"/>
</g>
</svg>
